Coordinates
version=1
nRows=6
nColumns=34
inDegrees=yes

Units are S.I. units (second, meters, Newtons, ...)
If the header above contains a line with 'inDegrees', this indicates whether rotational values are in degrees (yes) or radians (no).

endheader
time	pelvis_tilt	pelvis_list	pelvis_rotation	pelvis_tx	pelvis_ty	pelvis_tz	hip_flexion_r	hip_adduction_r	hip_rotation_r	knee_angle_r	ankle_angle_r	subtalar_angle_r	mtp_angle_r	hip_flexion_l	hip_adduction_l	hip_rotation_l	knee_angle_l	ankle_angle_l	subtalar_angle_l	mtp_angle_l	lumbar_extension	lumbar_bending	lumbar_rotation	arm_flex_r	arm_add_r	arm_rot_r	elbow_flex_r	pro_sup_r	arm_flex_l	arm_add_l	arm_rot_l	elbow_flex_l	pro_sup_l
      8.90000000	      8.23404968	     -5.20550025	      1.95026232	      0.37504227	      0.71593071	     -0.26388697	     38.90248996	     -5.65739634	     -4.88129524	      3.55398180	      4.32472994	     -9.81042734	      0.00000000	     37.28924733	      6.16874427	      0.96280222	     85.29975809	     39.58925354	     -3.38409502	      0.00000000	    -33.52522319	     -0.64721097	     -1.31780302	     93.11519487	     -0.81728429	     57.75149499	    124.49620707	     99.66637391	    106.01759346	     -2.21757425	     75.51696846	    121.77939364	     87.56275005
      8.91666670	      8.07982081	     -5.13384514	      1.87266356	      0.37292369	      0.71360590	     -0.26421926	     38.92566726	     -5.65142504	     -4.52911869	      2.95303053	      4.10324435	     -9.60400374	      0.00000000	     38.07509122	      6.20233807	      0.90871678	     85.92181820	     39.77066810	     -3.65372670	      0.00000000	    -33.63332042	     -0.67776911	     -1.41882554	     93.29596551	     -0.91073194	     57.57587265	    124.32094751	     99.65350018	    106.21569374	     -2.18435521	     75.45309438	    121.70500978	     87.54140266
      8.93333330	      7.71642563	     -5.11858847	      1.68810171	      0.37452314	      0.71219082	     -0.26408201	     39.15712929	     -5.54644838	     -4.49665228	      2.28765384	      3.47230233	     -9.60706883	      0.00000000	     38.67001809	      6.21341472	      0.91009971	     86.31827331	     39.90613147	     -4.12854986	      0.00000000	    -33.45163655	     -0.73392921	     -1.32135429	     93.16088563	     -0.91304265	     57.51071647	    124.19772595	     99.63854605	    106.29103363	     -2.07887860	     75.69197086	    121.65319408	     87.51155299
      8.95000000	      7.66739805	     -5.13698993	      1.61046643	      0.37192832	      0.71129928	     -0.26467907	     39.20615795	     -5.49661532	     -4.86655338	      2.13675847	      3.42799003	     -9.95516056	      0.00000000	     39.14841406	      6.21043058	      0.70297934	     86.60571010	     39.51783278	     -4.07505271	      0.00000000	    -33.57644986	     -0.79711710	     -1.23483342	     93.12684692	     -1.02576823	     57.44409495	    124.18441940	     99.62902587	    106.32383876	     -2.25754479	     75.82611370	    121.38282430	     87.49139769
      8.96666670	      7.45050349	     -5.12882958	      1.58924663	      0.37168628	      0.71100005	     -0.26528335	     39.51034564	     -5.55056520	     -4.89372002	      1.93490867	      2.82168681	    -10.24220033	      0.00000000	     39.25534297	      6.27840867	      0.48278423	     86.53372953	     39.24332409	     -3.66945622	      0.00000000	    -33.35597743	     -0.81432271	     -1.14442067	     92.73684968	     -1.33720977	     57.49384779	    124.17749947	     99.60981412	    105.91012853	     -1.99695377	     76.41301893	    121.25847742	     87.43931078
      8.98333330	      7.39223674	     -5.11049186	      1.51660540	      0.37243410	      0.70950029	     -0.26620931	     39.61227317	     -5.65795888	     -5.35115498	      1.92759718	      2.35577584	    -10.73536258	      0.00000000	     39.49055619	      6.33379120	      0.48027305	     86.71178113	     38.23827795	     -3.15221472	      0.00000000	    -33.39730917	     -0.84624274	     -1.00668556	     92.52978930	     -1.59954549	     57.48584507	    124.12311817	     99.58838864	    105.71487908	     -1.85186755	     76.75122527	    121.09906526	     87.39510762
